<mxfile host="app.diagrams.net" agent="Mozilla/5.0 (Macintosh; Intel Mac OS X 10_15_7) AppleWebKit/537.36 (KHTML, like Gecko) Chrome/131.0.0.0 Safari/537.36" version="25.0.3">
  <diagram name="第 1 页" id="FFhI5Ify87RGp9g4HIUQ">
    <mxGraphModel dx="1272" dy="836" grid="1" gridSize="10" guides="1" tooltips="1" connect="1" arrows="1" fold="1" page="1" pageScale="1" pageWidth="827" pageHeight="1169" math="0" shadow="0">
      <root>
        <mxCell id="0" />
        <mxCell id="1" parent="0" />
        <mxCell id="evc_-I8BFv6MO0Uh6OTk-1" value="" style="rounded=0;whiteSpace=wrap;html=1;fillColor=#ffe6cc;strokeColor=#1A1A1A;dashed=1;dashPattern=12 12;" vertex="1" parent="1">
          <mxGeometry x="390" y="110" width="510" height="390" as="geometry" />
        </mxCell>
        <mxCell id="evc_-I8BFv6MO0Uh6OTk-2" value="OpenAI&lt;div&gt;对接服务&lt;/div&gt;" style="rounded=0;whiteSpace=wrap;html=1;fillColor=#b0e3e6;strokeColor=#0e8088;fontSize=18;" vertex="1" parent="1">
          <mxGeometry x="414" y="250" width="96" height="100" as="geometry" />
        </mxCell>
        <mxCell id="evc_-I8BFv6MO0Uh6OTk-3" value="" style="rounded=0;whiteSpace=wrap;html=1;dashed=1;dashPattern=8 8;fillColor=#fad9d5;strokeColor=#ae4132;" vertex="1" parent="1">
          <mxGeometry x="580" y="130" width="300" height="350" as="geometry" />
        </mxCell>
        <mxCell id="evc_-I8BFv6MO0Uh6OTk-4" value="对接OpenAI" style="rounded=0;whiteSpace=wrap;html=1;fillColor=#cdeb8b;strokeColor=#36393d;" vertex="1" parent="1">
          <mxGeometry x="600" y="150" width="120" height="50" as="geometry" />
        </mxCell>
        <mxCell id="evc_-I8BFv6MO0Uh6OTk-5" value="对接Claude" style="rounded=0;whiteSpace=wrap;html=1;fillColor=#cdeb8b;strokeColor=#36393d;" vertex="1" parent="1">
          <mxGeometry x="600" y="230" width="120" height="50" as="geometry" />
        </mxCell>
        <mxCell id="evc_-I8BFv6MO0Uh6OTk-6" value="对接DevAGI" style="rounded=0;whiteSpace=wrap;html=1;fillColor=#cdeb8b;strokeColor=#36393d;" vertex="1" parent="1">
          <mxGeometry x="600" y="310" width="120" height="50" as="geometry" />
        </mxCell>
        <mxCell id="evc_-I8BFv6MO0Uh6OTk-7" value="对接文心一言" style="rounded=0;whiteSpace=wrap;html=1;fillColor=#cdeb8b;strokeColor=#36393d;" vertex="1" parent="1">
          <mxGeometry x="600" y="390" width="120" height="50" as="geometry" />
        </mxCell>
        <mxCell id="evc_-I8BFv6MO0Uh6OTk-8" value="对接通义千问" style="rounded=0;whiteSpace=wrap;html=1;fillColor=#cdeb8b;strokeColor=#36393d;" vertex="1" parent="1">
          <mxGeometry x="740" y="150" width="120" height="50" as="geometry" />
        </mxCell>
        <mxCell id="evc_-I8BFv6MO0Uh6OTk-9" value="对接智谱&lt;div&gt;CharGLM&lt;/div&gt;" style="rounded=0;whiteSpace=wrap;html=1;fillColor=#cdeb8b;strokeColor=#36393d;" vertex="1" parent="1">
          <mxGeometry x="740" y="230" width="120" height="50" as="geometry" />
        </mxCell>
        <mxCell id="evc_-I8BFv6MO0Uh6OTk-10" value="对接腾讯混元" style="rounded=0;whiteSpace=wrap;html=1;fillColor=#cdeb8b;strokeColor=#36393d;" vertex="1" parent="1">
          <mxGeometry x="740" y="310" width="120" height="50" as="geometry" />
        </mxCell>
        <mxCell id="evc_-I8BFv6MO0Uh6OTk-11" value="对接Kimi" style="rounded=0;whiteSpace=wrap;html=1;fillColor=#cdeb8b;strokeColor=#36393d;" vertex="1" parent="1">
          <mxGeometry x="740" y="390" width="120" height="50" as="geometry" />
        </mxCell>
        <mxCell id="evc_-I8BFv6MO0Uh6OTk-12" value="" style="endArrow=classic;html=1;rounded=0;entryX=1;entryY=0.5;entryDx=0;entryDy=0;exitX=0.002;exitY=0.486;exitDx=0;exitDy=0;exitPerimeter=0;" edge="1" parent="1" source="evc_-I8BFv6MO0Uh6OTk-3" target="evc_-I8BFv6MO0Uh6OTk-2">
          <mxGeometry width="50" height="50" relative="1" as="geometry">
            <mxPoint x="580" y="297" as="sourcePoint" />
            <mxPoint x="470" y="390" as="targetPoint" />
          </mxGeometry>
        </mxCell>
        <mxCell id="evc_-I8BFv6MO0Uh6OTk-13" value="实现接口" style="text;html=1;align=center;verticalAlign=middle;whiteSpace=wrap;rounded=0;" vertex="1" parent="1">
          <mxGeometry x="520" y="268" width="50" height="30" as="geometry" />
        </mxCell>
        <mxCell id="evc_-I8BFv6MO0Uh6OTk-14" value="业务系统" style="rounded=0;whiteSpace=wrap;html=1;fillColor=#ffcc99;strokeColor=#36393d;" vertex="1" parent="1">
          <mxGeometry x="160" y="180" width="120" height="60" as="geometry" />
        </mxCell>
        <mxCell id="evc_-I8BFv6MO0Uh6OTk-15" value="客户端" style="rounded=0;whiteSpace=wrap;html=1;fillColor=#ffcc99;strokeColor=#36393d;" vertex="1" parent="1">
          <mxGeometry x="160" y="360" width="120" height="60" as="geometry" />
        </mxCell>
        <mxCell id="evc_-I8BFv6MO0Uh6OTk-16" value="" style="endArrow=classic;html=1;rounded=0;exitX=1;exitY=0.5;exitDx=0;exitDy=0;entryX=-0.001;entryY=0.256;entryDx=0;entryDy=0;entryPerimeter=0;" edge="1" parent="1" source="evc_-I8BFv6MO0Uh6OTk-14" target="evc_-I8BFv6MO0Uh6OTk-1">
          <mxGeometry width="50" height="50" relative="1" as="geometry">
            <mxPoint x="278.9800000000001" y="200" as="sourcePoint" />
            <mxPoint x="390" y="201.01000000000005" as="targetPoint" />
          </mxGeometry>
        </mxCell>
        <mxCell id="evc_-I8BFv6MO0Uh6OTk-17" value="" style="endArrow=classic;html=1;rounded=0;exitX=1;exitY=0.5;exitDx=0;exitDy=0;entryX=-0.001;entryY=0.256;entryDx=0;entryDy=0;entryPerimeter=0;" edge="1" parent="1">
          <mxGeometry width="50" height="50" relative="1" as="geometry">
            <mxPoint x="281" y="389.35" as="sourcePoint" />
            <mxPoint x="390" y="389.35" as="targetPoint" />
          </mxGeometry>
        </mxCell>
        <mxCell id="evc_-I8BFv6MO0Uh6OTk-18" value="HTTP/RPC" style="text;html=1;align=center;verticalAlign=middle;whiteSpace=wrap;rounded=0;" vertex="1" parent="1">
          <mxGeometry x="300" y="178" width="60" height="30" as="geometry" />
        </mxCell>
        <mxCell id="evc_-I8BFv6MO0Uh6OTk-19" value="HTTP/RPC" style="text;html=1;align=center;verticalAlign=middle;whiteSpace=wrap;rounded=0;" vertex="1" parent="1">
          <mxGeometry x="300" y="360" width="60" height="30" as="geometry" />
        </mxCell>
        <mxCell id="evc_-I8BFv6MO0Uh6OTk-20" value="" style="endArrow=classic;html=1;rounded=0;exitX=1;exitY=0.5;exitDx=0;exitDy=0;entryX=0.454;entryY=0.094;entryDx=0;entryDy=0;entryPerimeter=0;" edge="1" parent="1" source="evc_-I8BFv6MO0Uh6OTk-1" target="evc_-I8BFv6MO0Uh6OTk-21">
          <mxGeometry width="50" height="50" relative="1" as="geometry">
            <mxPoint x="960" y="310" as="sourcePoint" />
            <mxPoint x="970" y="306" as="targetPoint" />
          </mxGeometry>
        </mxCell>
        <mxCell id="evc_-I8BFv6MO0Uh6OTk-21" value="" style="shape=cloud;whiteSpace=wrap;html=1;aspect=fixed;direction=north;fillColor=#cce5ff;strokeColor=#36393d;" vertex="1" parent="1">
          <mxGeometry x="930" y="48.190000000000005" width="469.62" height="469.62" as="geometry" />
        </mxCell>
        <mxCell id="evc_-I8BFv6MO0Uh6OTk-22" value="OpenAI" style="rounded=0;whiteSpace=wrap;html=1;fillColor=#76608a;strokeColor=#432D57;aspect=fixed;fontColor=#ffffff;" vertex="1" parent="1">
          <mxGeometry x="1060" y="130" width="100" height="41.67" as="geometry" />
        </mxCell>
        <mxCell id="evc_-I8BFv6MO0Uh6OTk-23" value="Claude" style="rounded=0;whiteSpace=wrap;html=1;fillColor=#76608a;strokeColor=#432D57;aspect=fixed;fontColor=#ffffff;" vertex="1" parent="1">
          <mxGeometry x="1060" y="210" width="100" height="41.67" as="geometry" />
        </mxCell>
        <mxCell id="evc_-I8BFv6MO0Uh6OTk-24" value="DevAGI" style="rounded=0;whiteSpace=wrap;html=1;fillColor=#76608a;strokeColor=#432D57;aspect=fixed;fontColor=#ffffff;" vertex="1" parent="1">
          <mxGeometry x="1060" y="290" width="100" height="41.67" as="geometry" />
        </mxCell>
        <mxCell id="evc_-I8BFv6MO0Uh6OTk-25" value="文心一言" style="rounded=0;whiteSpace=wrap;html=1;fillColor=#76608a;strokeColor=#432D57;aspect=fixed;fontColor=#ffffff;" vertex="1" parent="1">
          <mxGeometry x="1060" y="370" width="100" height="41.67" as="geometry" />
        </mxCell>
        <mxCell id="evc_-I8BFv6MO0Uh6OTk-26" value="通义千问" style="rounded=0;whiteSpace=wrap;html=1;fillColor=#76608a;strokeColor=#432D57;aspect=fixed;fontColor=#ffffff;" vertex="1" parent="1">
          <mxGeometry x="1200" y="130" width="100" height="41.67" as="geometry" />
        </mxCell>
        <mxCell id="evc_-I8BFv6MO0Uh6OTk-27" value="智谱&lt;div&gt;CharGLM&lt;/div&gt;" style="rounded=0;whiteSpace=wrap;html=1;fillColor=#76608a;strokeColor=#432D57;aspect=fixed;fontColor=#ffffff;" vertex="1" parent="1">
          <mxGeometry x="1200" y="210" width="100" height="41.67" as="geometry" />
        </mxCell>
        <mxCell id="evc_-I8BFv6MO0Uh6OTk-28" value="接腾讯混元" style="rounded=0;whiteSpace=wrap;html=1;fillColor=#76608a;strokeColor=#432D57;aspect=fixed;fontColor=#ffffff;" vertex="1" parent="1">
          <mxGeometry x="1200" y="290" width="100" height="41.67" as="geometry" />
        </mxCell>
        <mxCell id="evc_-I8BFv6MO0Uh6OTk-29" value="Kimi" style="rounded=0;whiteSpace=wrap;html=1;fillColor=#76608a;strokeColor=#432D57;aspect=fixed;fontColor=#ffffff;" vertex="1" parent="1">
          <mxGeometry x="1200" y="370" width="100" height="41.67" as="geometry" />
        </mxCell>
        <mxCell id="evc_-I8BFv6MO0Uh6OTk-30" value="对接大模型" style="text;html=1;align=center;verticalAlign=middle;whiteSpace=wrap;rounded=0;" vertex="1" parent="1">
          <mxGeometry x="908" y="266" width="60" height="30" as="geometry" />
        </mxCell>
      </root>
    </mxGraphModel>
  </diagram>
</mxfile>
